<mxfile host="app.diagrams.net" modified="2020-11-25T09:54:07.642Z" agent="5.0 (Windows NT 6.1; Win64; x64) AppleWebKit/537.36 (KHTML, like Gecko) Chrome/86.0.4240.198 Safari/537.36" etag="IIqKL6I2Z3bf1X7c8iA9" version="13.10.1" type="github">
  <diagram id="_IUiwXL_C3cBtvh0CRpl" name="Page-1">
    <mxGraphModel dx="1695" dy="425" grid="1" gridSize="10" guides="1" tooltips="1" connect="1" arrows="1" fold="1" page="1" pageScale="1" pageWidth="827" pageHeight="1169" math="0" shadow="0">
      <root>
        <mxCell id="0" />
        <mxCell id="1" parent="0" />
        <mxCell id="2YkDD8uxBYW-g8fFTxg7-5" style="edgeStyle=orthogonalEdgeStyle;rounded=0;orthogonalLoop=1;jettySize=auto;html=1;exitX=1;exitY=0.5;exitDx=0;exitDy=0;entryX=0.011;entryY=0.161;entryDx=0;entryDy=0;entryPerimeter=0;" edge="1" parent="1" source="2YkDD8uxBYW-g8fFTxg7-1" target="2YkDD8uxBYW-g8fFTxg7-3">
          <mxGeometry relative="1" as="geometry">
            <mxPoint x="350" y="111" as="targetPoint" />
          </mxGeometry>
        </mxCell>
        <mxCell id="2YkDD8uxBYW-g8fFTxg7-1" value="&lt;font style=&quot;font-size: 18px&quot;&gt;&lt;b&gt;静态&lt;/b&gt;&lt;b&gt;排放&lt;br&gt;源清单&lt;/b&gt;&lt;b&gt;&lt;br&gt;&lt;/b&gt;&lt;/font&gt;" style="rounded=1;whiteSpace=wrap;html=1;fillColor=#FFD966;" vertex="1" parent="1">
          <mxGeometry x="105" y="80" width="130" height="60" as="geometry" />
        </mxCell>
        <mxCell id="2YkDD8uxBYW-g8fFTxg7-6" style="edgeStyle=orthogonalEdgeStyle;rounded=0;orthogonalLoop=1;jettySize=auto;html=1;exitX=1;exitY=0.5;exitDx=0;exitDy=0;entryX=-0.011;entryY=0.889;entryDx=0;entryDy=0;entryPerimeter=0;" edge="1" parent="1" source="2YkDD8uxBYW-g8fFTxg7-2" target="2YkDD8uxBYW-g8fFTxg7-3">
          <mxGeometry relative="1" as="geometry" />
        </mxCell>
        <mxCell id="2YkDD8uxBYW-g8fFTxg7-2" value="&lt;font style=&quot;font-size: 18px&quot;&gt;&lt;b&gt;WRF&lt;br&gt;&lt;/b&gt;&lt;b&gt;气象模型&lt;/b&gt;&lt;/font&gt;" style="rounded=1;whiteSpace=wrap;html=1;fillColor=#00FF00;" vertex="1" parent="1">
          <mxGeometry x="105" y="211" width="130" height="60" as="geometry" />
        </mxCell>
        <mxCell id="2YkDD8uxBYW-g8fFTxg7-3" value="&lt;font style=&quot;font-size: 24px&quot;&gt;&lt;b&gt;数值模式&lt;br&gt;CMAQ/CAMx&lt;/b&gt;&lt;/font&gt;" style="whiteSpace=wrap;html=1;aspect=fixed;fillColor=#B5739D;" vertex="1" parent="1">
          <mxGeometry x="350" y="81" width="180" height="180" as="geometry" />
        </mxCell>
        <mxCell id="2YkDD8uxBYW-g8fFTxg7-4" value="&lt;span style=&quot;font-size: 18px&quot;&gt;&lt;b&gt;预报&lt;br&gt;&lt;br&gt;&lt;/b&gt;&lt;/span&gt;&lt;font style=&quot;font-size: 18px&quot;&gt;&lt;b&gt;溯源&lt;/b&gt;&lt;/font&gt;" style="rounded=0;whiteSpace=wrap;html=1;fillColor=#FFFF00;" vertex="1" parent="1">
          <mxGeometry x="605" y="81" width="50" height="180" as="geometry" />
        </mxCell>
        <mxCell id="2YkDD8uxBYW-g8fFTxg7-8" value="" style="shape=flexArrow;endArrow=classic;html=1;entryX=0;entryY=0.55;entryDx=0;entryDy=0;entryPerimeter=0;fillColor=#FFB570;" edge="1" parent="1">
          <mxGeometry width="50" height="50" relative="1" as="geometry">
            <mxPoint x="530" y="171" as="sourcePoint" />
            <mxPoint x="605" y="170" as="targetPoint" />
          </mxGeometry>
        </mxCell>
        <mxCell id="2YkDD8uxBYW-g8fFTxg7-9" style="edgeStyle=orthogonalEdgeStyle;rounded=0;orthogonalLoop=1;jettySize=auto;html=1;exitX=1;exitY=0.5;exitDx=0;exitDy=0;entryX=0.011;entryY=0.161;entryDx=0;entryDy=0;entryPerimeter=0;" edge="1" parent="1" source="2YkDD8uxBYW-g8fFTxg7-10" target="2YkDD8uxBYW-g8fFTxg7-13">
          <mxGeometry relative="1" as="geometry">
            <mxPoint x="350" y="491" as="targetPoint" />
          </mxGeometry>
        </mxCell>
        <mxCell id="2YkDD8uxBYW-g8fFTxg7-10" value="&lt;font style=&quot;font-size: 18px&quot;&gt;&lt;b&gt;动态&lt;/b&gt;&lt;b&gt;排放&lt;br&gt;源清单&lt;/b&gt;&lt;b&gt;&lt;br&gt;&lt;/b&gt;&lt;/font&gt;" style="rounded=1;whiteSpace=wrap;html=1;fillColor=#FFD966;" vertex="1" parent="1">
          <mxGeometry x="105" y="460" width="130" height="60" as="geometry" />
        </mxCell>
        <mxCell id="2YkDD8uxBYW-g8fFTxg7-11" style="edgeStyle=orthogonalEdgeStyle;rounded=0;orthogonalLoop=1;jettySize=auto;html=1;exitX=1;exitY=0.5;exitDx=0;exitDy=0;entryX=-0.011;entryY=0.889;entryDx=0;entryDy=0;entryPerimeter=0;" edge="1" parent="1" source="2YkDD8uxBYW-g8fFTxg7-12" target="2YkDD8uxBYW-g8fFTxg7-13">
          <mxGeometry relative="1" as="geometry" />
        </mxCell>
        <mxCell id="2YkDD8uxBYW-g8fFTxg7-12" value="&lt;font style=&quot;font-size: 18px&quot;&gt;&lt;b&gt;WRF&lt;br&gt;&lt;/b&gt;&lt;b&gt;气象模型&lt;/b&gt;&lt;/font&gt;" style="rounded=1;whiteSpace=wrap;html=1;fillColor=#00FF00;" vertex="1" parent="1">
          <mxGeometry x="105" y="591" width="130" height="60" as="geometry" />
        </mxCell>
        <mxCell id="2YkDD8uxBYW-g8fFTxg7-13" value="&lt;font style=&quot;font-size: 24px&quot;&gt;&lt;b&gt;数值模式&lt;br&gt;CMAQ/CAMx&lt;/b&gt;&lt;/font&gt;" style="whiteSpace=wrap;html=1;aspect=fixed;fillColor=#B5739D;" vertex="1" parent="1">
          <mxGeometry x="350" y="461" width="180" height="180" as="geometry" />
        </mxCell>
        <mxCell id="2YkDD8uxBYW-g8fFTxg7-14" value="&lt;span style=&quot;font-size: 18px&quot;&gt;&lt;b&gt;预报&lt;br&gt;&lt;br&gt;&lt;/b&gt;&lt;/span&gt;&lt;font style=&quot;font-size: 18px&quot;&gt;&lt;b&gt;溯源&lt;/b&gt;&lt;/font&gt;" style="rounded=0;whiteSpace=wrap;html=1;fillColor=#FFFF00;" vertex="1" parent="1">
          <mxGeometry x="605" y="461" width="50" height="180" as="geometry" />
        </mxCell>
        <mxCell id="2YkDD8uxBYW-g8fFTxg7-15" value="" style="shape=flexArrow;endArrow=classic;html=1;entryX=0;entryY=0.55;entryDx=0;entryDy=0;entryPerimeter=0;fillColor=#FFB570;" edge="1" parent="1">
          <mxGeometry width="50" height="50" relative="1" as="geometry">
            <mxPoint x="530" y="551" as="sourcePoint" />
            <mxPoint x="605" y="550" as="targetPoint" />
          </mxGeometry>
        </mxCell>
        <mxCell id="2YkDD8uxBYW-g8fFTxg7-20" style="edgeStyle=orthogonalEdgeStyle;rounded=0;orthogonalLoop=1;jettySize=auto;html=1;exitX=0.5;exitY=1;exitDx=0;exitDy=0;entryX=0.5;entryY=0;entryDx=0;entryDy=0;" edge="1" parent="1" source="2YkDD8uxBYW-g8fFTxg7-17" target="2YkDD8uxBYW-g8fFTxg7-10">
          <mxGeometry relative="1" as="geometry" />
        </mxCell>
        <mxCell id="2YkDD8uxBYW-g8fFTxg7-17" value="&lt;b&gt;&lt;font style=&quot;font-size: 18px&quot;&gt;固定污染源&lt;/font&gt;&lt;/b&gt;" style="rounded=0;whiteSpace=wrap;html=1;fillColor=#B3B3B3;" vertex="1" parent="1">
          <mxGeometry x="-40" y="350" width="120" height="60" as="geometry" />
        </mxCell>
        <mxCell id="2YkDD8uxBYW-g8fFTxg7-22" style="edgeStyle=orthogonalEdgeStyle;rounded=0;orthogonalLoop=1;jettySize=auto;html=1;exitX=0.5;exitY=1;exitDx=0;exitDy=0;" edge="1" parent="1" source="2YkDD8uxBYW-g8fFTxg7-18">
          <mxGeometry relative="1" as="geometry">
            <mxPoint x="170" y="460" as="targetPoint" />
          </mxGeometry>
        </mxCell>
        <mxCell id="2YkDD8uxBYW-g8fFTxg7-18" value="&lt;font style=&quot;font-size: 18px&quot;&gt;&lt;b&gt;机动车源&lt;/b&gt;&lt;/font&gt;" style="rounded=0;whiteSpace=wrap;html=1;fillColor=#EA6B66;" vertex="1" parent="1">
          <mxGeometry x="110" y="350" width="120" height="60" as="geometry" />
        </mxCell>
        <mxCell id="2YkDD8uxBYW-g8fFTxg7-21" style="edgeStyle=orthogonalEdgeStyle;rounded=0;orthogonalLoop=1;jettySize=auto;html=1;exitX=0.5;exitY=1;exitDx=0;exitDy=0;" edge="1" parent="1" source="2YkDD8uxBYW-g8fFTxg7-19">
          <mxGeometry relative="1" as="geometry">
            <mxPoint x="170" y="460" as="targetPoint" />
          </mxGeometry>
        </mxCell>
        <mxCell id="2YkDD8uxBYW-g8fFTxg7-19" value="&lt;font style=&quot;font-size: 18px&quot;&gt;&lt;b&gt;船舶源&lt;/b&gt;&lt;/font&gt;" style="rounded=0;whiteSpace=wrap;html=1;fillColor=#33FFFF;" vertex="1" parent="1">
          <mxGeometry x="260" y="350" width="120" height="60" as="geometry" />
        </mxCell>
        <mxCell id="2YkDD8uxBYW-g8fFTxg7-23" value="" style="endArrow=none;dashed=1;html=1;dashPattern=1 3;strokeWidth=2;" edge="1" parent="1">
          <mxGeometry width="50" height="50" relative="1" as="geometry">
            <mxPoint x="-70" y="321" as="sourcePoint" />
            <mxPoint x="720" y="321" as="targetPoint" />
          </mxGeometry>
        </mxCell>
      </root>
    </mxGraphModel>
  </diagram>
</mxfile>
